<?xml version="1.0" encoding="utf-8"?>
<!-- Generator: Adobe Illustrator 22.1.0, SVG Export Plug-In . SVG Version: 6.00 Build 0)  -->
<svg version="1.1" id="Layer_1" xmlns="http://www.w3.org/2000/svg" xmlns:xlink="http://www.w3.org/1999/xlink" x="0px" y="0px"
	 viewBox="0 0 144 144" style="enable-background:new 0 0 144 144;" xml:space="preserve">
<style type="text/css">
	.st0{display:none;}
	.st1{display:inline;fill:#007DBA;}
	.st2{font-family:'Avenir-Medium';}
	.st3{font-size:64.7037px;}
	.st4{display:inline;fill:none;stroke:#FFFFFF;stroke-width:8;stroke-linecap:round;stroke-linejoin:round;stroke-miterlimit:10;}
	.st5{display:inline;fill:#6B7D89;}
	.st6{fill:#a16630;}
</style>
<g id="Passport" class="st0">
	<circle class="st1" cx="71.9" cy="47.9" r="21.9"/>
	<path class="st1" d="M98.9,87.1c-5-5.5-11.3-9.4-18.3-11.2c-2.1,1.9-5.1,3.1-8.4,3.1c-3.4,0-6.4-1.3-8.5-3.2
		C49.5,79.3,38.2,91.5,34,107.4h59.8"/>
	<text transform="matrix(1 0 0 1 87.0312 110.1582)" class="st1 st2 st3">p</text>
	<text transform="matrix(1 0 0 1 87.0312 110.1582)" class="st4 st2 st3">p</text>
	<text transform="matrix(1 0 0 1 87.0312 110.1582)" class="st1 st2 st3">p</text>
	<path class="st5" d="M71.9,143.8C32.3,143.8,0,111.6,0,71.9C0,32.3,32.2,0.1,71.9,0.1s71.9,32.2,71.9,71.8
		C143.8,111.6,111.6,143.8,71.9,143.8z M71.9,8.2C36.7,8.2,8.1,36.8,8.1,71.9c0,35.2,28.7,63.9,63.9,63.9s63.9-28.7,63.9-63.9
		C135.8,36.8,107.2,8.2,71.9,8.2z"/>
</g>
<g id="Not-logged-in">
	<circle class="st6" cx="72" cy="47.7" r="21.9"/>
	<path class="st6" d="M80.7,75.7c-2.1,1.9-5.1,3.1-8.4,3.1c-3.4,0-6.4-1.3-8.5-3.2c-14.2,3.5-25.5,15.7-29.7,31.6h75.7
		C105.8,91.3,94.6,79.2,80.7,75.7z"/>
	<path class="st6" d="M71.9,143.8C32.3,143.8,0,111.6,0,71.9C0,32.3,32.2,0.1,71.9,0.1s71.9,32.2,71.9,71.8
		C143.8,111.6,111.6,143.8,71.9,143.8z M71.9,8.2C36.7,8.2,8.1,36.8,8.1,71.9c0,35.2,28.7,63.9,63.9,63.9s63.9-28.7,63.9-63.9
		C135.8,36.8,107.2,8.2,71.9,8.2z"/>
</g>
<g id="Loggedin-no-passport" class="st0">
	<circle class="st1" cx="72" cy="47.7" r="21.9"/>
	<path class="st1" d="M80.7,75.7c-2.1,1.9-5.1,3.1-8.4,3.1c-3.4,0-6.4-1.3-8.5-3.2c-14.2,3.5-25.5,15.7-29.7,31.6h75.7
		C105.8,91.3,94.6,79.2,80.7,75.7z"/>
	<path class="st1" d="M71.9,143.8C32.3,143.8,0,111.6,0,71.9C0,32.3,32.2,0.1,71.9,0.1s71.9,32.2,71.9,71.8
		C143.8,111.6,111.6,143.8,71.9,143.8z M71.9,8.2C36.7,8.2,8.1,36.8,8.1,71.9c0,35.2,28.7,63.9,63.9,63.9s63.9-28.7,63.9-63.9
		C135.8,36.8,107.2,8.2,71.9,8.2z"/>
</g>
</svg>
